<?xml version="1.0" encoding="UTF-8"?>
<svg xmlns="http://www.w3.org/2000/svg" viewBox="0 0 64 64">
  <defs>
    <linearGradient id="tide" x1="0" y1="0" x2="1" y2="0">
      <stop offset="0%" stop-color="#67a3ff"/>
      <stop offset="100%" stop-color="#20d6ef"/>
    </linearGradient>
  </defs>

  <rect x="2" y="2" width="60" height="60" rx="12" fill="#10182b"/>

  <rect x="20" y="16" width="24" height="6" rx="3" fill="#e2e8f0"/>
  <rect x="16" y="26" width="32" height="6" rx="3" fill="#e2e8f0"/>
  <rect x="12" y="36" width="40" height="6" rx="3" fill="#e2e8f0"/>

  <path
    d="M9 48c6-3 12-3 18 0s12 3 18 0c5-2 9-2 12 0"
    fill="none"
    stroke="url(#tide)"
    stroke-width="2.8"
    stroke-linecap="round"
  />
  <path
    d="M9 54c6-2 12-2 18 0s12 2 18 0c5-1.5 9-1.5 12 0"
    fill="none"
    stroke="url(#tide)"
    stroke-width="2.2"
    stroke-linecap="round"
    opacity="0.9"
  />
</svg>
